#!OML:ASF F:\VICON\USERDATA\INSTALL\rory3\rory3.ASF
:FULLY-SPECIFIED
:DEGREES
19
root 0.8463983209532353 17.913098120183992 -4.4010109267884925 -4.044089997249186 -1.0021740842841003 2.3573192000098953
lfemur 0.11127560160140959 -4.089152935823826 -28.40148761916369
ltibia 25.658903321889227
lfoot -17.17998761327571 1.2625045846696077
ltoes 6.189166747311175
rfemur -30.56248762740602 -1.720793302200137 19.07720982771423
rtibia 56.2653907639026
rfoot -10.7770975394865 -9.778443491041122
rtoes -2.3390621649557826
lowerback 11.680485627034026 -0.26079502600388754 -2.241361644886779
upperback 0.545259274620042 -0.597691535183233 0.7494558920769818
thorax -5.953631505418078 -0.22203808735669872 2.1521832881531218
lowerneck -16.137002271674252 -2.751196285078121 -1.509556920721485
upperneck 22.34738792823677 -3.2158094668765704 -0.9678538262856211
head 9.759249739827716 -1.735014829725969 -0.5050681063954411
lclavicle -4.533851499001848e-16 -7.764982017229942e-16
lhumerus -26.301807227461747 0.30617344334105656 81.0390928484179
lradius 26.75899579888305
lwrist 5.63477892746222
lhand -28.14730092774284 16.84630716352252
lfingers 7.12502
lthumb -1.5281309188310903 46.8206069198239
rclavicle -4.533851499001848e-16 -7.764982017229942e-16
rhumerus -30.7354960243083 -23.162293290639198 -77.13480321962425
rradius 24.423504648601945
rwrist 5.42080709630476
rhand -17.70510144704442 24.621290645444187
rfingers 7.12502
rthumb 8.554898534443188 -5.18538948581962
20
root 0.7923675799701786 17.92259743744692 -3.696630600821715 -3.416144067408406 -0.492401785085852 2.7854981293614482
lfemur 3.997251184461147 -3.3273351703560348 -28.620987068471763
ltibia 21.374806168274052
lfoot -17.550987701547925 -0.13040761553764213
ltoes 2.4839722006419875
rfemur -31.21258729300748 -0.5718360480955771 18.460610441635854
rtibia 44.20809692606627
rfoot -8.286160029530228 -10.984991457493614
rtoes -5.40910743056839
lowerback 11.26958914545841 -0.5300272171290894 -3.0926397053280263
upperback 0.5493901712211158 -1.0473826842282472 0.8836971700674892
thorax -5.677745515037932 -0.4234642364766087 2.8401704438569793
lowerneck -16.998687037194852 -2.692578066175283 -1.7603530622154213
upperneck 22.402087290876835 -3.141610780535122 -0.5864645567261155
head 9.952333080018489 -1.6755975392412936 -0.33511802426365755
lclavicle -4.533851309123039e-16 -7.764981973281276e-16
lhumerus -24.08721032453516 -0.531999324310811 80.85319372555888
lradius 28.693091945727634
lwrist 7.747152889899955
lhand -21.590230406679805 46.071850160181725
lfingers 7.12502
lthumb 4.804479488245107 75.99735149480829
rclavicle -4.533851309123039e-16 -7.764981973281276e-16
rhumerus -31.68489451182756 -23.10029319481722 -76.5942044258484
rradius 24.566404276525702
rwrist 5.088287826844767
rhand -17.4904030585007 24.1430924615471
rfingers 7.12502
rthumb 8.762096918555866 -5.6549975984206995
21
root 0.41103371019080953 17.751371501804325 -0.24787681044584353 -1.4917936551974875 1.6904332749730289 2.01812555829305
lfemur 7.152514057266595 -2.0280035909354743 -26.922323448802892
ltibia 17.232392808225857
lfoot -17.465754322688667 -0.3509601526490065
ltoes 1.9210890580869386
rfemur -29.516437761221905 2.196153453742479 17.920662934676603
rtibia 30.49579090654646
rfoot -7.4019068728448 -12.258543338414093
rtoes -3.2091480992969244
lowerback 9.746572247189684 -1.0497525745660508 -3.646617421508763
upperback 0.46544264681763026 -1.7008878515810288 0.7044667019166821
thorax -5.293370910790745 -0.7377522707043181 2.979547064028596
lowerneck -16.665522428149877 -2.701431450109105 -1.6716210803685774
upperneck 22.062900918328932 -3.2869159359640996 -0.8284165939327306
head 9.713691948650848 -1.7422402094825877 -0.39721081030324623
lclavicle -4.54566704552217e-16 -7.773339013565517e-16
lhumerus -23.33316328177403 -2.9869353874680957 81.1477448858734
lradius 30.208860251108096
lwrist 7.8957803506757305
lhand -28.656145385817677 22.31408400898203
lfingers 7.12502
lthumb -1.638855322312312 52.481367378865166
rclavicle -4.556507247234306e-16 -7.784413697002027e-16
rhumerus -32.53450971020651 -23.347232358645126 -76.10780025072663
rradius 24.474692397545688
rwrist 4.864582788813388
rhand -17.541402846714437 23.122341422443657
rfingers 7.12502
rthumb 8.566518801095432 -7.221711047343375
22
root 0.10777496844040774 17.624120000880986 2.68680552197873 -0.8966939419119124 2.3743501187289087 1.487218993999781
lfemur 10.258325159954223 -1.4964350383165301 -25.78007809526774
ltibia 13.757030535433415
lfoot -17.340197719879853 -1.13862972899237
ltoes -0.9886643592582272
rfemur -27.97592949043992 6.705554246532971 16.756493907959303
rtibia 18.619103361860596
rfoot -9.917152977165143 -15.429040421078783
rtoes -4.259830192298216
lowerback 9.331363314118336 -1.3639468690435745 -3.3114405861564515
upperback 0.25286559135310244 -2.078838338330133 0.8853425192896699
thorax -5.177912348381184 -0.9439858606101602 3.196476660646086
lowerneck -16.535809385673215 -2.747671037907195 -1.7616620981593805
upperneck 21.941184757843125 -3.3281887270009913 -0.7104195587798248
head 9.625677279579058 -1.7643639120188137 -0.3169588873466892
lclavicle -4.568478879388828e-16 -7.790695698704094e-16
lhumerus -22.599861347397596 -4.329441900375274 81.26326219758263
lradius 31.61505913951828
lwrist 8.073762289371327
lhand -28.248432504746027 23.715925615532733
lfingers 7.12502
lthumb -1.557464443190583 53.79858601896668
rclavicle -4.562461568795375e-16 -7.789191898602862e-16
rhumerus -33.31688841752176 -23.811810989410027 -75.51206269554741
rradius 24.203123820867912
rwrist 5.242371615179282
rhand -17.40906183810088 23.465478261070697
rfingers 7.12502
rthumb 8.961432716664842 -6.475699522162567
23
root -0.06319046203205597 17.46431756329295 5.979527206525061 -1.2829961588417218 1.2526089917138914 0.8849179871510535
lfemur 12.008864407522998 -1.545037901097365 -24.923904927204447
ltibia 13.24251542073467
lfoot -16.915831440196246 -2.36120034975295
ltoes -1.7581848526399135
rfemur -27.43059473454804 8.383502550568759 17.29691608113871
rtibia 14.349900912529328
rfoot -13.141850728391317 -16.353625721677865
rtoes -7.299447735067602
lowerback 9.862149891532837 -1.1793766118322173 -2.452526213882334
upperback 0.16418456833136674 -1.906980553242233 1.0717315309400044
thorax -5.034695883356831 -0.9126212612105681 3.1355927271614785
lowerneck -16.52482009426346 -2.8431971487610768 -1.8094536789070597
upperneck 21.792971311478567 -3.5015533779106423 -0.5704470120414094
head 9.592559167904584 -1.8237551876790863 -0.31979749100560106
lclavicle -4.579684698860446e-16 -7.799498055270066e-16
lhumerus -22.28522411710164 -4.538028063227159 81.41424807735125
lradius 32.41140518683434
lwrist 8.360875350887753
lhand -28.453270828380294 23.60246704490264
lfingers 7.12502
lthumb -1.3595907898564403 54.359814477487035
rclavicle -4.589128328581153e-16 -7.809215499092232e-16
rhumerus -33.96603687470944 -24.439651961983465 -74.92397346853423
rradius 23.914674088190207
rwrist 5.765899765746701
rhand -17.650539301011776 23.08192708450995
rfingers 7.12502
rthumb 8.816901495259218 -6.764227667242887
24
root -0.15619089478658055 17.409255583518025 8.458259464409627 -1.9034957776216315 -0.3508985618822906 0.28409161474801925
lfemur 12.687049526670394 -2.1610871837656207 -24.325236397227215
ltibia 15.924475268004327
lfoot -16.520097093993037 -3.393567691421386
ltoes -4.450357581616245
rfemur -27.77963763882487 5.37135516423259 20.40656529819874
rtibia 18.467747105066735
rfoot -9.959654274899652 -11.453973682319335
rtoes -8.288198546425503
lowerback 10.150129936738297 -0.8674350944246019 -1.482498215907156
upperback 0.1799939715983221 -1.438235260983779 1.2803079414608516
thorax -5.083650269083299 -0.7216973585537353 2.8760074395456554
lowerneck -16.578639348939653 -2.8647271454728225 -1.8304603191267113
upperneck 21.70132689238384 -3.5459512371122224 -0.46866529067251883
head 9.609057884587083 -1.8350136504918335 -0.2930632600604461
lclavicle -4.588231431120498e-16 -7.805803083840414e-16
lhumerus -22.434199335629422 -3.957280191849211 81.67163242556667
lradius 32.41892042844805
lwrist 8.527263096964512
lhand -28.961761113798342 22.626970500776267
lfingers 7.12502
lthumb -1.9798873953478595 53.04199097639725
rclavicle -4.597016029822799e-16 -7.816000817076354e-16
rhumerus -34.45956012751218 -25.165084888778345 -74.37097543600758
rradius 23.555732778781117
rwrist 6.209828037715383
rhand -17.475975388587518 22.953047497107285
rfingers 7.12502
rthumb 8.847388606068622 -6.744593363103318
25
root -0.2510717920946377 17.63233280990898 10.63684792824074 -1.970123524231473 -0.8199655173434994 -0.8802411352851356
lfemur 11.720940477575011 -3.613146527899224 -23.412096986083768
ltibia 21.018680658172073
lfoot -14.300939373217304 -4.247178223728686
ltoes -8.205609053494292
rfemur -26.996495551691986 4.315882993531254 22.944019105689804
rtibia 23.77441942613262
rfoot -6.971747167512789 -9.735638576516784
rtoes -7.303910385958904
lowerback 9.27659966271028 -0.9679785153545868 -0.08853022696252788
upperback 0.2944680390483099 -1.3736518477233626 1.5742372255167638
thorax -4.952455630718546 -0.6923803206413671 2.659884484086245
lowerneck -16.751037724088377 -2.8288559223221306 -1.8184368866262928
upperneck 21.650924773397065 -3.486177651850407 -0.45542843265962785
head 9.656066333794447 -1.800030475523067 -0.2843452998327714
lclavicle -4.587253475342731e-16 -7.805271060645944e-16
lhumerus -23.224577239423358 -3.0654666768345233 82.05485719562049
lradius 31.86171773975314
lwrist 8.223953126489967
lhand -28.851458419941064 22.704008906754552
lfingers 7.12502
lthumb -1.8106547859249273 53.776814927144024
rclavicle -4.599325394602442e-16 -7.817902162161847e-16
rhumerus -34.80317506034082 -26.01245825057712 -73.76335331343776
rradius 22.931678607594996
rwrist 7.095179961269944
rhand -17.362357183489497 22.88158837006102
rfingers 7.12502
rthumb 8.933163674456733 -6.762653643710321
26
root -0.25741093538571747 17.956097002925976 11.957726940570039 -1.6395103069356343 0.4197397248451349 -2.3706148779839085
lfemur 9.022830070439698 -4.932284943463945 -21.6179676981843
ltibia 28.61285370707396
lfoot -9.285494858825007 -7.249989240684776
ltoes -11.53416207015097
rfemur -23.65735523653325 4.984196441681554 24.442307072663006
rtibia 25.520611462931548
rfoot -4.416562636971139 -6.159726751683205
rtoes -3.7957809941421674
lowerback 7.837241758912549 -1.6176440796612408 1.7201048266676504
upperback 0.23079772219251526 -1.7036156490515337 2.0405656445238964
thorax -4.9728415452398655 -0.8582238155853931 2.539340815422203
lowerneck -16.72673750858857 -2.7192938595202256 -1.8103536516926473
upperneck 21.70805323018834 -3.2832332595505718 -0.6151223527132839
head 9.703344348923885 -1.723451800463476 -0.28877188618592836
lclavicle -4.598894202994187e-16 -7.813920991002949e-16
lhumerus -24.544103212616083 -1.4645409385591837 82.44307168946106
lradius 30.91606989960983
lwrist 7.636407094887063
lhand -29.636916953076863 21.634273585217294
lfingers 7.12502
lthumb -2.5870648942378973 52.57562915189957
rclavicle -4.593912642254439e-16 -7.81366444217705e-16
rhumerus -35.05016708665262 -26.996340474971408 -73.0020781800897
rradius 22.011964803237294
rwrist 8.43633911521486
rhand -17.670753673380574 21.884123944076688
rfingers 7.12502
rthumb 8.562170892327645 -8.061136096251593
